<svg width="40" height="40" viewBox="0 0 100 100" fill="white" xmlns="http://www.w3.org/2000/svg">
  <path d="M100 34.2C99.6 31.6 96.7 30.2 94.7 28.9C91.1 26.5 87.6 24.2 84 21.8C75.5 16.1 66.9 10.4 58.4 4.7C56.4 3.4 54.4 2 52.4 0.699997C51 -0.300003 49.1 -0.300003 47.6 0.699997C41.9 4.5 36.1 8.4 30.4 12.2L5.20001 29C3.00001 30.4 0.100012 31.8 1.15521e-05 34.8C-0.0999884 38.1 1.15521e-05 41.5 1.15521e-05 44.8V60.8C1.15521e-05 63.7 -0.599989 67.1 2.10001 68.9C8.50001 73.3 15 77.5 21.5 81.8C29.5 87.1 37.5 92.5 45.5 97.8C47.7 99.3 49.9 100.9 52.6 99.1C54.9 97.6 57.1 96.1 59.4 94.6C68.3 88.7 77.2 82.7 86.1 76.8L96 70.2C96.6 69.8 97.3 69.4 97.9 68.9C99.3 67.9 99.9 66.5 99.9 64.8V37.3C100 36.2 100.1 35.2 100 34.2C100 34.4 100 34.1 100 34.2ZM54.3 12.3L88 34.8L73 44.9L54.3 32.4V12.3ZM45.7 12.3V32.3L27.1 44.8L12 34.8L45.7 12.3ZM8.60001 42.8L19.3 50L8.60001 57.2V42.8ZM45.7 87.7L12 65.2L27 55.1L45.6 67.6V87.7H45.7ZM50 60.2L34.8 50L50 39.8L65.2 50L50 60.2ZM54.3 87.7V67.7L72.9 55.2L87.9 65.3L54.3 87.7ZM91.4 57.2L80.7 50L91.5 42.8L91.4 57.2Z" fill="white" />
</svg>
