<svg width="15" height="15" viewBox="0 0 15 15" fill="none" xmlns="http://www.w3.org/2000/svg">
<path d="M11 0H4C1.79086 0 0 1.79086 0 4V11C0 13.2091 1.79086 15 4 15H11C13.2091 15 15 13.2091 15 11V4C15 1.79086 13.2091 0 11 0Z" fill="#0EBEFF"/>
<path d="M8 8.366L9.845 9.431C9.9603 9.49655 10.0967 9.51432 10.2249 9.48048C10.3532 9.44664 10.4631 9.3639 10.531 9.25C10.5958 9.1342 10.6126 8.99759 10.5779 8.86952C10.5431 8.74145 10.4595 8.63212 10.345 8.565L8.5 7.5L10.345 6.435C10.4595 6.36788 10.5431 6.25855 10.5779 6.13048C10.6126 6.00241 10.5958 5.8658 10.531 5.75C10.4631 5.6361 10.3532 5.55336 10.2249 5.51952C10.0967 5.48568 9.9603 5.50345 9.845 5.569L8 6.634V4.504C7.99923 4.37126 7.94643 4.24412 7.85294 4.14988C7.75945 4.05564 7.63273 4.00183 7.5 4C7.232 4 7 4.225 7 4.503V6.634L5.155 5.569C5.03971 5.50345 4.90331 5.48568 4.77507 5.51952C4.64683 5.55336 4.53695 5.6361 4.469 5.75C4.40419 5.8658 4.38736 6.00241 4.42214 6.13048C4.45691 6.25855 4.54052 6.36788 4.655 6.435L6.5 7.5L4.655 8.565C4.54052 8.63212 4.45691 8.74145 4.42214 8.86952C4.38736 8.99759 4.40419 9.1342 4.469 9.25C4.603 9.482 4.914 9.57 5.155 9.431L7 8.366V10.496C7 10.767 7.224 11 7.5 11C7.768 11 8 10.775 8 10.497V8.366Z" fill="#282828"/>
</svg>
