<svg width="15" height="15" viewBox="0 0 15 15" fill="none" xmlns="http://www.w3.org/2000/svg">
<path d="M11 0H4C1.79086 0 0 1.79086 0 4V11C0 13.2091 1.79086 15 4 15H11C13.2091 15 15 13.2091 15 11V4C15 1.79086 13.2091 0 11 0Z" fill="#FF3C41"/>
<path d="M10.97 2.29001C10.9211 2.20174 10.8493 2.12825 10.7622 2.07723C10.6751 2.02621 10.5759 1.99954 10.475 2.00001C10.3767 2.00036 10.2802 2.02604 10.1947 2.07455C10.1092 2.12307 10.0377 2.1928 9.98699 2.27701L4.08199 12.137C4.02965 12.2233 4.0014 12.3221 4.00016 12.4231C3.99893 12.524 4.02477 12.6234 4.07499 12.711C4.17699 12.891 4.36199 13 4.56999 13C4.66828 12.9997 4.76482 12.974 4.85029 12.9255C4.93577 12.8769 5.0073 12.8072 5.05799 12.723L10.963 2.86301C11.0153 2.77668 11.0436 2.67791 11.0448 2.57696C11.0461 2.47601 11.0202 2.37758 10.97 2.29001Z" fill="#28282B"/>
</svg>
