<svg width="15" height="15" viewBox="0 0 15 15" fill="none" xmlns="http://www.w3.org/2000/svg">
<path d="M11 0H4C1.79086 0 0 1.79086 0 4V11C0 13.2091 1.79086 15 4 15H11C13.2091 15 15 13.2091 15 11V4C15 1.79086 13.2091 0 11 0Z" fill="#FCD000"/>
<path d="M6.554 3.705C6.554 3.972 6.364 4.201 6.102 4.248C4.902 4.465 3.982 5.858 3.982 7.523C3.982 9.188 4.902 10.58 6.102 10.797C6.23922 10.8312 6.35818 10.9165 6.43451 11.0355C6.51084 11.1546 6.53876 11.2983 6.51256 11.4373C6.48635 11.5762 6.408 11.6999 6.29355 11.7829C6.17911 11.866 6.03724 11.9022 5.897 11.884C4.164 11.562 2.875 9.709 2.875 7.523C2.875 5.336 4.164 3.483 5.897 3.161C5.97703 3.14585 6.05942 3.14854 6.13829 3.16887C6.21716 3.18921 6.29058 3.22668 6.35332 3.27863C6.41606 3.33057 6.46657 3.39571 6.50125 3.46941C6.53594 3.54311 6.55395 3.62354 6.554 3.705ZM8.446 3.705C8.446 3.358 8.762 3.098 9.103 3.161C10.836 3.483 12.125 5.336 12.125 7.523C12.125 9.709 10.836 11.563 9.103 11.884C8.96276 11.9022 8.82089 11.866 8.70644 11.7829C8.592 11.6999 8.51365 11.5762 8.48744 11.4373C8.46124 11.2983 8.48916 11.1546 8.56549 11.0355C8.64182 10.9165 8.76078 10.8312 8.898 10.797C10.098 10.58 11.018 9.187 11.018 7.523C11.018 5.858 10.098 4.465 8.898 4.248C8.77097 4.2248 8.65613 4.15772 8.57352 4.05847C8.49091 3.95923 8.44577 3.83412 8.446 3.705Z" fill="#282828"/>
</svg>
